<svg width="1200" height="800" viewBox="0 0 1200 800" fill="none" xmlns="http://www.w3.org/2000/svg">
  <rect width="1200" height="800" rx="40" fill="#0A101C"/>
  <path d="M105 646H1095" stroke="#16314C" stroke-width="2"/>
  <path d="M105 532H1095" stroke="#12263C" stroke-width="2"/>
  <path d="M105 418H1095" stroke="#12263C" stroke-width="2"/>
  <path d="M105 304H1095" stroke="#12263C" stroke-width="2"/>
  <path d="M105 190H1095" stroke="#12263C" stroke-width="2"/>
  <path d="M105 646L240 512L360 548L514 384L650 418L810 252L924 298L1080 154" stroke="url(#paint0_linear)" stroke-width="12" stroke-linecap="round" stroke-linejoin="round"/>
  <circle cx="240" cy="512" r="16" fill="#31D7FF"/>
  <circle cx="514" cy="384" r="16" fill="#31D7FF"/>
  <circle cx="810" cy="252" r="16" fill="#9B7CFF"/>
  <circle cx="1080" cy="154" r="16" fill="#17E6BF"/>
  <rect x="128" y="104" width="274" height="122" rx="26" fill="#0C1A2C" stroke="#22466A"/>
  <text x="160" y="154" fill="#8DBDFF" font-family="Arial, sans-serif" font-size="20" font-weight="700">PORTFOLIO ENGINE</text>
  <text x="160" y="193" fill="#E4F0FF" font-family="Arial, sans-serif" font-size="34" font-weight="700">Diversify smartly</text>
  <rect x="832" y="502" width="254" height="134" rx="26" fill="#0B1828" stroke="#274D6E"/>
  <text x="864" y="548" fill="#8EF5D8" font-family="Arial, sans-serif" font-size="20" font-weight="700">ASSET MIX</text>
  <text x="864" y="584" fill="#D8F9EF" font-family="Arial, sans-serif" font-size="18">T-Bills • Bonds • Funds</text>
  <text x="864" y="612" fill="#A7C0D9" font-family="Arial, sans-serif" font-size="16">Growth tuned for risk levels</text>
  <defs>
    <linearGradient id="paint0_linear" x1="105" y1="646" x2="1080" y2="154" gradientUnits="userSpaceOnUse">
      <stop stop-color="#31D7FF"/>
      <stop offset="0.52" stop-color="#9B7CFF"/>
      <stop offset="1" stop-color="#17E6BF"/>
    </linearGradient>
  </defs>
</svg>
